/* XPM */
static char * exit_xpm[] = {
"64 64 231 2",
"  	c #000100",
". 	c #070807",
"+ 	c #080506",
"@ 	c #0A0708",
"# 	c #080907",
"$ 	c #0D0B0C",
"% 	c #0F100D",
"& 	c #110D0E",
"* 	c #120F10",
"= 	c #10100E",
"- 	c #151213",
"; 	c #171816",
"> 	c #181517",
", 	c #1A1718",
"' 	c #191917",
") 	c #1C1C1A",
"! 	c #1E201E",
"~ 	c #201F1F",
"{ 	c #211F20",
"] 	c #21211F",
"^ 	c #242423",
"/ 	c #272825",
"( 	c #282626",
"_ 	c #292628",
": 	c #292927",
"< 	c #2C2C2B",
"[ 	c #2F302D",
"} 	c #302E2F",
"| 	c #30312E",
"1 	c #343332",
"2 	c #373836",
"3 	c #393637",
"4 	c #3A3738",
"5 	c #393937",
"6 	c #3C3C3A",
"7 	c #003671",
"8 	c #003D76",
"9 	c #003F78",
"0 	c #00467C",
"a 	c #00497E",
"b 	c #403E3F",
"c 	c #413F40",
"d 	c #41413F",
"e 	c #444342",
"f 	c #484746",
"g 	c #484748",
"h 	c #494846",
"i 	c #4B4B4A",
"j 	c #4E504E",
"k 	c #504F4D",
"l 	c #514F51",
"m 	c #51514E",
"n 	c #545353",
"o 	c #575855",
"p 	c #585756",
"q 	c #585759",
"r 	c #585956",
"s 	c #5C5C5B",
"t 	c #5F5E60",
"u 	c #5F605E",
"v 	c #605F5D",
"w 	c #605F61",
"x 	c #61615E",
"y 	c #646563",
"z 	c #676768",
"A 	c #676866",
"B 	c #686765",
"C 	c #686768",
"D 	c #696967",
"E 	c #6D6D6B",
"F 	c #6F6E70",
"G 	c #706F6D",
"H 	c #71716F",
"I 	c #747473",
"J 	c #777778",
"K 	c #787775",
"L 	c #787778",
"M 	c #787976",
"N 	c #7D7D7C",
"O 	c #004C81",
"P 	c #005386",
"Q 	c #025588",
"R 	c #06588B",
"S 	c #095387",
"T 	c #0A5689",
"U 	c #0B5B8D",
"V 	c #125D8E",
"W 	c #135F90",
"X 	c #156191",
"Y 	c #1A6594",
"Z 	c #1D6896",
"` 	c #216796",
" .	c #236997",
"..	c #246C98",
"+.	c #2C6593",
"@.	c #2C6894",
"#.	c #296E9B",
"$.	c #2C719C",
"%.	c #34759E",
"&.	c #39739F",
"*.	c #2F75A0",
"=.	c #3376A0",
"-.	c #3579A2",
";.	c #3977A1",
">.	c #3E7DA3",
",.	c #417EA6",
"'.	c #7F807F",
").	c #3F80A7",
"!.	c #4380A6",
"~.	c #4482A9",
"{.	c #4B84AB",
"].	c #4D88AD",
"^.	c #528AAE",
"/.	c #548DB1",
"(.	c #5A8EB1",
"_.	c #5790B3",
":.	c #5C91B4",
"<.	c #6295B6",
"[.	c #6297B8",
"}.	c #6599B9",
"|.	c #6B9CBB",
"1.	c #729FBD",
"2.	c #6FA1BF",
"3.	c #70A1BE",
"4.	c #78A0BE",
"5.	c #76A3C0",
"6.	c #7AA5C1",
"7.	c #7DA9C4",
"8.	c #807F7D",
"9.	c #807F81",
"0.	c #81817F",
"a.	c #848483",
"b.	c #888785",
"c.	c #888987",
"d.	c #8B8B8A",
"e.	c #8F8F90",
"f.	c #8F908D",
"g.	c #908F8F",
"h.	c #91918F",
"i.	c #959493",
"j.	c #979798",
"k.	c #979896",
"l.	c #989795",
"m.	c #999997",
"n.	c #9C9C9B",
"o.	c #9F9FA0",
"p.	c #9FA09D",
"q.	c #A19F9D",
"r.	c #A1A19E",
"s.	c #A4A4A3",
"t.	c #A7A8A6",
"u.	c #A8A7A5",
"v.	c #A9A9A7",
"w.	c #ABABA9",
"x.	c #AFAFB0",
"y.	c #AFB0B1",
"z.	c #B0AFAD",
"A.	c #B1B0AF",
"B.	c #B1B1B2",
"C.	c #B6B7B8",
"D.	c #B8B7B5",
"E.	c #B9B8B7",
"F.	c #BCBCBB",
"G.	c #84ABC6",
"H.	c #86AEC8",
"I.	c #88AEC7",
"J.	c #8CAFC9",
"K.	c #8AB0C7",
"L.	c #8CB1C9",
"M.	c #94B6CC",
"N.	c #96B8CE",
"O.	c #99B7CE",
"P.	c #9AB8CF",
"Q.	c #95B9D0",
"R.	c #9BBBD1",
"S.	c #A1BED4",
"T.	c #BFBFC0",
"U.	c #BFC0BF",
"V.	c #A3C1D6",
"W.	c #A9C4D7",
"X.	c #ACC5D9",
"Y.	c #AEC9DB",
"Z.	c #BFC0C0",
"`.	c #B4CCDD",
" +	c #B9CFDF",
".+	c #B9D0DF",
"++	c #BDD2E1",
"@+	c #C1BFBD",
"#+	c #C1C0BF",
"$+	c #C5C5C6",
"%+	c #C8C7C6",
"&+	c #C9C9C7",
"*+	c #CCCCCB",
"=+	c #D0CFCE",
"-+	c #D1D0CE",
";+	c #D4D4D3",
">+	c #D8D7D6",
",+	c #D9D8D7",
"'+	c #DCDBDB",
")+	c #C2D5E3",
"!+	c #C5D8E6",
"~+	c #CDDDE7",
"{+	c #CDDEE9",
"]+	c #D1DFEA",
"^+	c #DFE0DF",
"/+	c #CDE0EB",
"(+	c #D2E2EB",
"_+	c #DAE5EE",
":+	c #DCE7F0",
"<+	c #DEE9F1",
"[+	c #E0DFDD",
"}+	c #E0E0DF",
"|+	c #E4E4E3",
"1+	c #E7E7E8",
"2+	c #E8E7E6",
"3+	c #E8E8E7",
"4+	c #ECECEB",
"5+	c #E3ECF3",
"6+	c #E9EFF5",
"7+	c #EFF0EF",
"8+	c #E6F0F6",
"9+	c #ECF1F6",
"0+	c #EEF4F8",
"a+	c #F0EFEE",
"b+	c #F0F0EF",
"c+	c #F4F4F4",
"d+	c #F2F6FA",
"e+	c #F6F9FB",
"f+	c #F8F7F7",
"g+	c #F8F8F7",
"h+	c #FEFEFE",
"h+h+h+h+h+h+h+h+h+h+h+h+h+h+h+h+h+h+h+h+h+h+h+h+h+h+h+h+h+h+h+h+h+h+h+h+h+h+h+h+h+h+h+h+h+h+h+h+h+h+h+h+h+h+h+h+h+h+h+h+h+h+h+g+",
"h+h+h+h+h+e+9+5+6+5+5+5+5+6+5+5+6+6+6+5+6+6+6+5+5+6+6+5+5+6+6+6+6+6+6+5+5+5+5+6+6+5+5+6+6+5+6+6+6+5+5+6+6+5+5+5+6+6+d+h+h+h+h+h+",
"h+h+h+e+S.&.P P P P P P P P P P P P P P P P P P P P P P P P P P P P P P P P P P P P P P P P P P P P P P P P P P P P +.G.6+h+h+h+",
"h+h+e+4.P P P P P P P P P P P P P P P P P P P P P P P P P P P P P P P P P P P P P P P P P P P P P P P P P P P P P P P P !.6+h+h+",
"h+h+`.P P P P P P P P P P P P P P P P P P P P P P P P P P P P P P P P P P P P P P P P P P P P P P P P P P P P P P P P P P 4.h+h+",
"h+h+<.P P P P P P P P P P P P P P P P P P P P P P P P P P P P P P P P P P P P P P P P P P P P P P P P P P P P P P P P P P X 0+h+",
"h+e+&.P P P P P P P P P P P P P P P P P P P P P P Q S S P P P P P P P P P P P P P P P P P P P P P P P P P P P P P P P P P P 5+h+",
"h+e+&.P P P P P P P P P P P P P P P P P P P P P P Q P S P P P P P P P P P P P P P P P P P P P P P P P P P P P P P P P P P P 5+h+",
"h+e+&.P P P P P P P P P P P P P P T T P P P P P P P S S P P P +.+.+.+.V P P P P P P P P P P +.1.4.+.P P P P P P P P P P P P 5+h+",
"h+e+&.P P P P P P P P P P P P &.`.5+6+)+{.P P P P P S P P P +.9+h+h+h+O.P P P P P P P P P 4.9+h+h+0+J.P P P P P P P P P P P 5+h+",
"h+e+&.P P P P P P P P P P P &.5+h+h+h+h+9+{.P P P P P P P P +.9+h+h+h+O.P P P P P P P P (.e+h+h+h+h+h+4.P P P P P P P P P P 5+h+",
"h+e+&.P P P P P P P P P P P X.h+h+h+h+h+h+)+P P P P P P P P +.9+h+h+h+O.P P P P P P P P )+h+h+h+h+h+h+]+P P P P P P P P P P 5+h+",
"h+e+&.P P P P P P P P P P P _+h+h+h+h+h+h+0+S P P P P P P P +.9+h+h+h+O.P P P P P P P P 1+h+h+h+h+h+h+6+T P P P P P P P P P 5+h+",
"h+e+&.P P P P P P P P P P P _+h+h+h+h+h+h+9+S P P P P P P P +.9+h+h+h+O.P P P P P P P P ]+h+h+h+h+h+h+_+P P P P P P P P P P 5+h+",
"h+e+&.P P P P P P P P P P P X.h+h+h+h+h+h+)+P P P P P P P P +.6+h+h+h+O.P P P P P P P P I.h+h+h+h+h+h+O.P P P P P P P P P P 5+h+",
"h+e+&.P P P P P P P P P P P +.5+h+h+h+h+c+{.P P P P P P P P +.9+h+h+h+O.P P P P P P P P Q `.h+h+h+h+)+T P P P P P P P P P P <+h+",
"h+e+&.P P P P P P P P P P P P &. +6+9+)+{.P P P P P P P P P +.9+h+h+h+O.P P P P P P P P P P <.W.X.4.Q P P P P P P P P P P P 5+h+",
"h+e+&.P P P P P P P P P P S +.4.J.J.J.J.4.&.S P P P P P P P +.9+h+h+h+O.P P P P P P X I.~+5+5+1+5+5+1+)+4.V P P P P P P P P 5+h+",
"h+e+&.P P P P P P P P P <.]+e+h+h+h+h+h+h+h+_+4.P P P P P P +.9+h+h+h+O.P P P P P 4.5+h+h+h+h+h+h+h+h+h+h+_+(.P P P P P P P 5+h+",
"h+e+&.P P P P P P P P G.e+h+h+h+h+h+h+h+h+h+h+e+M.P P P P P +.9+h+h+h+O.P P P P O.e+h+h+h+h+h+h+h+h+h+h+h+h+e+4.P P P P P P 5+h+",
"h+e+&.P P P P P P P &.d+h+h+h+h+h+h+h+h+h+h+h+h+e+^.P P P P +.9+h+h+h+O.P P P (.e+h+h+h+h+h+h+h+h+h+h+h+h+h+h+0+&.P P P P P 5+h+",
"h+e+&.P P P P P P P O.h+h+h+h+h+h+h+h+h+h+h+h+h+h+W.P P P P +.9+h+h+h+O.P P P )+h+h+h+h+h+h+h+h+h+h+h+h+h+h+h+h+P.P P P P P 5+h+",
"h+e+&.P P P P P P P ~+h+h+h+h+h+h+h+h+h+h+h+h+h+h+_+Q P P P +.9+h+h+h+O.P P P _+h+h+h+h+h+h+h+h+h+h+h+h+h+h+h+h+)+P P P P P 5+h+",
"h+e+&.P P P P P P V d+h+h+9+h+h+h+h+h+h+h+h+6+h+h+e+@.P P P +.9+h+h+h+O.P P P :+h+h+h+h+h+h+h+h+h+h+h+h+h+h+h+h+~+P P P P P 5+h+",
"h+e+&.P P P P P P 4.h+h+h+O.e+h+h+h+h+h+h+h+O.h+h+h+G.P P P +.9+h+h+h+O.P P P :+h+h+_+e+h+h+h+h+h+h+h+h+5+0+h+h+~+P P P P P 1+h+",
"h+e+&.P P P P P P X.h+h+e+O.h+h+h+h+h+h+h+h+S.e+h+h+++P P P +.9+h+h+h+O.P P P :+h+h+)+0+h+h+h+h+h+h+h+h+~+5+h+h+~+P P P P P 5+h+",
"h+e+&.P P P P P S _+h+h+_+)+h+h+h+h+h+h+h+h+~+]+h+h+6+V P P +.9+h+h+h+O.P P P :+h+h+)+0+h+h+h+h+h+h+h+h+~+5+h+h+~+P P P P P 5+h+",
"h+e+&.P P P P P &.e+h+h+W.6+h+h+h+h+h+h+h+h+d+S.h+h+h+(.P P +.9+h+h+h+O.P P P :+h+h+)+0+h+h+h+h+h+h+h+h+~+5+h+h+~+P P P P P 5+h+",
"h+e+&.P P P P P J.h+h+h+J.h+h+h+h+h+h+h+h+h+h+O.h+h+h+P.P P +.9+h+h+h+O.P P P :+h+h+)+0+h+h+h+h+h+h+h+h+]+5+h+h+~+P P P P P 5+h+",
"h+e+&.P P P P P )+h+h+0+S.h+h+h+h+h+h+h+h+h+h+`.9+h+h+]+P P +.9+h+h+h+O.P P P :+h+h+)+0+h+h+h+h+h+h+h+h+~+5+h+h+~+P P P P P 5+h+",
"h+e+&.P P P P V 9+h+h+)+~+h+h+h+h+h+h+h+h+h+h+_+)+h+h+e++.P +.9+h+h+h+O.P P P :+h+h+)+0+h+h+h+h+h+h+h+h+]+5+h+h+~+P P P P P 5+h+",
"h+e+&.P P P P (.h+h+h+O.d+h+h+h+h+h+h+h+h+h+h+e+S.h+h+h+4.P +.9+h+h+h+O.P P P :+h+h+)+0+h+h+h+h+h+h+h+h+~+4+h+h+~+P P P P P <+h+",
"h+e+&.P P P P M.h+h+h+I.h+h+h+h+h+h+h+h+h+h+h+h+O.h+h+h+W.P +.9+h+h+h+O.P P P :+h+h+)+0+h+h+h+h+h+h+h+h+~+4+h+h+~+P P P P P 5+h+",
"h+e+&.P P P P (.e+h+_+X.h+h+h+h+h+h+h+h+h+h+h+h+++]+h+e+4.P +.9+h+h+h+O.P P P :+h+h+)+0+h+h+h+h+h+h+h+h+~+5+h+h+~+P P P P P 5+h+",
"h+e+&.P P P P P >.4.+._+h+h+h+h+h+h+h+h+h+h+h+h+6++.4.{.P P +.9+h+h+h+O.P P P _+h+h+)+0+h+h+h+h+h+h+h+h+~+1+h+h+)+P P P P P 5+h+",
"h+e+&.P P P P P P P &.e+h+h+h+h+h+h+h+h+h+h+h+h+h+^.P P P P +.9+h+h+h+O.P P P G.c+9+4.0+h+h+h+h+h+h+h+h+]+O.d+9+|.P P P P P 5+h+",
"h+e+&.P P P P P P P G.h+h+h+h+h+h+h+h+h+h+h+h+h+h+O.P P P P +.9+h+h+h+O.P P P P T T Q 0+h+h+h+ +~+h+h+h+]+P T T P P P P P P 5+h+",
"h+e+&.P P P P P P P  +h+h+h+h+h+h+h+h+h+h+h+h+h+h+~+P P P P +.9+h+h+h+O.P P P P P P Q 0+h+h+h+`.)+h+h+h+]+P P P P P P P P P 5+h+",
"h+e+&.P P P P P P Q 6+h+h+h+h+h+h+h+h+h+h+h+h+h+h+0++.P P P +.9+h+h+h+O.P P P P P P Q 0+h+h+h+`.)+h+h+h+]+P P P P P P P P P 5+h+",
"h+e+&.P P P P P P ^.h+h+h+h+h+h+h+h+h+h+h+h+h+h+h+h+<.P P P +.9+h+h+h+O.P P P P P P Q 0+h+h+h+`.)+h+h+h+]+P P P P P P P P P 5+h+",
"h+e+&.P P P P P P <.)+)+)+;+h+h+h+<+_+h+h+h+~+)+)+)+4.P P P +.9+h+h+h+O.P P P P P P Q 0+h+h+h+`.)+h+h+h+]+P P P P P P P P P 5+h+",
"h+e+&.P P P P P P P P P P +.d+h+h+~+ +h+h+h+&.P P P P P P P +.9+h+h+h+O.P P P P P P Q 0+h+h+h+`.)+h+h+h+]+P P P P P P P P P 5+h+",
"h+e+&.P P P P P P P P P P +.e+h+h+~+ +h+h+h+&.P P P P P P P +.9+h+h+h+O.P P P P P P Q 0+h+h+h+`.)+h+h+h+]+P P P P P P P P P <+h+",
"h+e+&.P P P P P P P P P P +.e+h+h+~+ +h+h+h+&.P P P P P P P +.9+h+h+h+O.P P P P P P T 9+h+h+h+`.)+h+h+h+]+P P P P P P P P P 5+h+",
"h+e+&.P P P P P P P P P P +.e+h+h+~+ +h+h+h+&.P P P P P P P +.9+h+h+h+O.P P P P P S T 0+h+h+h+`.)+h+h+h+]+P P P P P P P P P 5+h+",
"h+e+&.P P P P P P P P P P +.f+h+h+~+ +h+h+h+&.P P P P P P P +.9+h+h+h+O.P P Q S S P Q 0+h+h+h+`.)+h+h+h+]+P P P P P P P P P 5+h+",
"h+e+&.P P P P P P P P P P +.e+h+h+~+ +h+h+h+&.P P P P P P P +.9+h+h+h+O.P P Q S S P Q 0+h+h+h+`.)+h+h+h+]+P P P P P P P P P 5+h+",
"h+e+&.P P P P P P P P P P +.e+h+h+~+ +h+h+h+&.P P P P P P P +.9+h+h+h+M.P P P S S P Q 0+h+h+h+`.)+h+h+h+]+P P P P P P P P P 5+h+",
"h+e+&.P P P P P P P P P P +.f+h+h+~+*+h+h+h+&.P P P P P P P +.9+h+h+h+O.P P P Q P P Q 0+h+h+h+`.)+h+h+h+]+P P P P P P P P P 5+h+",
"h+e+&.P P P P P P P P P P +.e+h+h+~+ +h+h+h+&.P P P P P P P +.9+h+h+h+O.P P P P Q P Q c+h+h+h+`.)+h+h+h+]+P P P P P P P P P 5+h+",
"h+e+&.P P P P P P P P P P +.e+h+h+~+ +h+h+h+&.P P P P P P P +.9+h+h+h+O.P P P P P P Q c+h+h+h+`.)+h+h+h+]+P P P P P P P P P 1+h+",
"h+e+&.P P P P P P P P P P +.e+h+h+~+ +h+h+h+&.P P P P P P P +.9+h+h+h+O.P P P P P P Q 0+h+h+h+`.)+h+h+h+]+P P P P P P P P P 5+h+",
"h+e+&.P P P P P P P P P P +.e+h+h+~+ +h+h+h+&.P P P P P P P +.9+h+h+h+O.P P P P P P Q 0+h+h+h+`.)+h+h+h+]+P P P P P P P P P <+h+",
"h+e+&.P P P P P P P P P P +.d+h+h+;+$+h+h+e+@.P P P P P P P +.9+h+h+h+O.P P P P P P P _+h+h+h+W.`.h+h+h+)+P P P P P P P P P 5+h+",
"h+e+&.P P P P P P P P P P P W.h+e+4.|.d+h+`.P P P P P P P P +.9+h+h+h+O.P P P P P P P <.6+h+]+&.^.1+h+<+{.P P P P P P P P P 5+h+",
"h+e+&.P P P P P P P P P P P Q +.+.P P +.+.S P P P P P P P P T 4.G.G.G.{.P P P P P P P P V +.S P P T +.T P P P P P P P P P P 5+h+",
"h+e+&.P P P P P P P P P P P P P P P P P P P P P P P P P P P P P P P P P P P P P P P P P P P P P P P P P P P P P P P P P P P 5+h+",
"h+e+&.P P P P P P P P P P P P P P P P P P P P P P P P P P P P P P P P P P P P P P P P P P P P P P P P P P P P P P P P P P P 5+h+",
"h+h+<.P P P P P P P P P P P P P P P P P P P P P P P P P P P P P P P P P P P P P P P P P P P P P P P P P P P P P P P P P P X c+h+",
"h+h+`.P P P P P P P P P P P P P P P P P P P P P P P P P P P P P P P P P P P P P P P P P P P P P P P P P P P P P P P P P P 4.h+h+",
"h+h+e+4.P P P P P P P P P P P P P P P P P P P P P P P P P P P P P P P P P P P P P P P P P P P P P P P P P P P P P P P P >.6+h+h+",
"h+h+h+e+P.&.P P P P P P P P P P P P P P P P P P P P P P P P P P P P P P P P P P P P P P P P P P P P P P P P P P P P X G.6+h+h+h+",
"h+h+h+h+h+e+6+6+6+5+6+6+6+5+6+6+5+6+5+5+5+5+5+6+5+6+6+5+5+5+6+5+5+5+6+6+6+6+6+5+5+6+5+6+5+5+5+5+6+6+5+6+6+5+5+6+6+6+c+h+h+h+h+h+",
"h+h+h+h+h+h+h+h+h+h+h+h+h+h+h+h+h+h+h+h+h+h+h+h+h+h+h+h+h+h+h+h+h+h+h+h+h+h+h+h+h+h+h+h+h+h+h+h+h+h+h+h+h+h+h+h+h+h+h+h+h+h+h+g+"};
